Coordinates
version=1
nRows=12
nColumns=24
inDegrees=yes

Units are S.I. units (second, meters, Newtons, ...)
Angles are in degrees.

endheader
time	pelvis_tilt	pelvis_list	pelvis_rotation	pelvis_tx	pelvis_ty	pelvis_tz	hip_flexion_r	hip_adduction_r	hip_rotation_r	knee_angle_r	ankle_angle_r	subtalar_angle_r	mtp_angle_r	hip_flexion_l	hip_adduction_l	hip_rotation_l	knee_angle_l	ankle_angle_l	subtalar_angle_l	mtp_angle_l	lumbar_extension	lumbar_bending	lumbar_rotation
      0.94883333	     -2.61140420	     -2.67420240	     -0.59776917	     -0.17687070	      0.98236566	      0.29348670	     -6.89560962	      6.81156674	     -2.91890671	    -10.16001384	     13.10811516	     -2.14575664	      1.56526351	     26.42767847	     -1.12577132	     -2.44035623	     -8.33051259	     -1.47150247	     -4.56435708	     -3.58804832	     -1.04909181	      6.26784464	      6.47984741
      0.95300000	     -2.63799438	     -2.64254548	     -0.61719760	     -0.17138301	      0.98168989	      0.29310343	     -6.88825463	      6.73520152	     -2.93744469	    -10.81185583	     13.33419420	     -2.10383297	      1.51148585	     26.33688319	     -1.02475542	     -2.37822888	     -8.16880264	     -1.65301033	     -4.54450516	     -3.31948863	     -1.00025631	      6.24436269	      6.57412235
      0.95716667	     -2.65424193	     -2.58988957	     -0.62168214	     -0.16582479	      0.98109044	      0.29275404	     -6.90175234	      6.64833060	     -2.88760124	    -11.44444898	     13.48460600	     -2.22022144	      1.50459271	     26.22940221	     -0.90506321	     -2.33091066	     -8.08059686	     -1.82888145	     -4.43172345	     -3.25649281	     -0.94479492	      6.16800345	      6.55492632
      0.96133333	     -2.72865750	     -2.54623933	     -0.63696138	     -0.16030574	      0.98044357	      0.29238462	     -6.80004416	      6.56626662	     -2.81858080	    -12.18305358	     13.72333562	     -2.28613131	      1.49692220	     26.18688043	     -0.79068525	     -2.20717969	     -8.06882961	     -2.01688719	     -4.45099165	     -3.10737200	     -0.82984565	      6.12994005	      6.58120532
      0.96550000	     -2.74242709	     -2.47775756	     -0.62187654	     -0.15473028	      0.97993450	      0.29200064	     -6.75071129	      6.45843684	     -2.80472210	    -12.93925147	     13.81186276	     -2.40690644	      1.49673645	     26.08806865	     -0.64650638	     -2.12434211	     -8.14351508	     -2.23152579	     -4.43239378	     -3.02712282	     -0.77961098	      6.02831516	      6.57790588
      0.96966667	     -2.81471770	     -2.41058295	     -0.63117236	     -0.14917173	      0.97941509	      0.29160662	     -6.59090572	      6.34580668	     -2.74417181	    -13.79245733	     13.99528061	     -2.46210037	      1.51182158	     26.02384097	     -0.50267405	     -1.94236242	     -8.22438569	     -2.48104047	     -4.56689820	     -2.84745706	     -0.66300079	      5.96623772	      6.59653936
      0.97383333	     -2.88618662	     -2.31984392	     -0.60169396	     -0.14358455	      0.97891959	      0.29114181	     -6.39980930	      6.19991799	     -2.79472962	    -14.69373616	     13.99062733	     -2.43460550	      1.59576608	     25.96375647	     -0.31450949	     -1.70789111	     -8.36627047	     -2.76807177	     -4.83329872	     -2.24279826	     -0.54044795	      5.85409568	      6.61275339
      0.97800000	     -2.88880988	     -2.22912529	     -0.58421033	     -0.13797179	      0.97859389	      0.29075863	     -6.27451753	      6.06866364	     -2.73033147	    -15.61771152	     14.09081826	     -2.61772450	      1.63232026	     25.84281682	     -0.15113925	     -1.60814207	     -8.58795092	     -3.01136320	     -4.84100388	     -2.10462087	     -0.51112029	      5.74631230	      6.56894985
      0.98216667	     -2.96727712	     -2.15401776	     -0.55930216	     -0.13239257	      0.97820452	      0.29032396	     -6.00955880	      5.94426060	     -2.72885827	    -16.63817508	     14.07187842	     -2.69761480	      1.75842637	     25.80275311	      0.01240343	     -1.39424144	     -8.84519527	     -3.29918375	     -5.14364517	     -1.75658025	     -0.38235319	      5.65203859	      6.55028383
      0.98633333	     -3.00072602	     -2.03161275	     -0.52207659	     -0.12671369	      0.97794114	      0.28990298	     -5.78349633	      5.77232952	     -2.72242137	    -17.68039886	     14.00319275	     -2.86158589	      1.82231268	     25.69441984	      0.21667859	     -1.24870601	     -9.10860246	     -3.53793583	     -5.21603016	     -1.62429140	     -0.29189534	      5.48679261	      6.50357095
      0.99050000	     -3.08960263	     -1.95162429	     -0.49257762	     -0.12112277	      0.97763627	      0.28945002	     -5.42719425	      5.63632106	     -2.74124278	    -18.84245735	     13.91702537	     -2.93017478	      1.98735150	     25.65047031	      0.38593620	     -1.01344424	     -9.39906478	     -3.82097020	     -5.55562127	     -1.36888012	     -0.14090859	      5.39520394	      6.45101733
      0.99466667	     -3.13796329	     -1.82481639	     -0.44623837	     -0.11547470	      0.97744341	      0.28897873	     -5.09102381	      5.44559898	     -2.79284920	    -20.04128007	     13.73383692	     -3.02687426	      2.17623327	     25.55445409	      0.60294608	     -0.82396327	     -9.70249678	     -4.07273385	     -5.80371866	     -1.13553796	     -0.03365155	      5.23433072	      6.38675416
